<?xml version="1.0" encoding="UTF-8"?>
<svg id="Layer_1" data-name="Layer 1" xmlns="http://www.w3.org/2000/svg" viewBox="0 0 160 160">
  <defs>
    <style>
      .cls-1 {
        fill: #b8e2e3;
      }

      .cls-2 {
        fill: #fff;
      }

      .cls-3 {
        fill: #6fa98a;
      }

      .cls-4 {
        fill: #f3f4f5;
      }

      .cls-5 {
        fill: #231f20;
      }
    </style>
  </defs>
  <path class="cls-3" d="M78.9,1.61v105.57s-45.9-4.24-51.55-50.85C21.7,9.73,78.9,1.61,78.9,1.61Z"/>
  <path class="cls-1" d="M78.9,52.45v105.93s44.84,1.77,50.49-43.43c0,0,13.42-51.55-50.49-62.5Z"/>
  <circle cx="85.68" cy="75.23" r="47.36"/>
  <circle class="cls-2" cx="84.63" cy="45.83" r="12.66"/>
  <circle class="cls-2" cx="115.45" cy="89.83" r="12.66"/>
  <circle class="cls-2" cx="60.37" cy="91.41" r="12.66"/>
  <circle class="cls-2" cx="57.54" cy="60.53" r="12.66"/>
  <circle class="cls-2" cx="111.71" cy="58.49" r="12.66"/>
  <circle class="cls-2" cx="88.51" cy="104.07" r="12.66"/>
  <g>
    <path class="cls-5" d="M89.29,26.41l-2.67-11.58,1.47.04,1.75,7.87c.12.55.23,1.06.31,1.53.08.47.14.83.18,1.07.05-.24.12-.59.22-1.06.1-.46.23-.97.38-1.51l2.14-7.77,1.43.04-3.27,11.43-1.94-.05Z"/>
    <path class="cls-5" d="M96.01,26.87l.32-1.25,2.28.57,2.17-8.65-2.28-.57.32-1.25,5.96,1.5-.31,1.25-2.28-.57-2.17,8.65,2.28.57-.32,1.25-5.96-1.5Z"/>
    <path class="cls-5" d="M104.65,29.39l5.21-10.26,1.26.64-4.63,9.1,4.64,2.36-.59,1.15-5.9-3Z"/>
    <path class="cls-5" d="M111.89,33.29l7.4-8.81,1.42,1.2-1.47,3.62c-.13.33-.26.66-.4.97-.14.31-.25.55-.33.72.16-.1.37-.25.65-.45.28-.2.57-.4.87-.6l3.25-2.11,1.42,1.2-7.4,8.81-1.06-.89,2.69-3.2c.3-.35.65-.75,1.05-1.18.4-.43.82-.86,1.26-1.3.43-.44.86-.85,1.26-1.25.41-.39.76-.74,1.06-1.03l-5.12,3.21-1.15-.96,2.26-5.61c-.22.35-.49.75-.8,1.19-.31.45-.64.92-1,1.41s-.71.97-1.08,1.45c-.36.48-.71.91-1.04,1.31l-2.69,3.2-1.06-.89Z"/>
    <path class="cls-5" d="M118.26,38.78l11.03-4.45,1.14,1.53-7.47,9.25-.85-1.15,2.01-2.43-2.07-2.8-2.91,1.21-.86-1.17ZM123.16,38.24l1.73,2.33,2.32-2.82c.44-.54.81-.98,1.12-1.32.31-.34.51-.57.61-.67-.12.06-.39.19-.81.39-.42.19-.95.42-1.58.68l-3.39,1.41Z"/>
  </g>
  <circle class="cls-4" cx="86.04" cy="75.23" r="6.38"/>
  <circle class="cls-4" cx="78.9" cy="66.84" r="3.17"/>
  <circle class="cls-4" cx="94.02" cy="84.25" r="3.17"/>
  <circle class="cls-4" cx="97.29" cy="73.93" r="3.17"/>
  <circle class="cls-4" cx="90.56" cy="64.63" r="3.17"/>
  <circle class="cls-4" cx="82.83" cy="85.22" r="3.17"/>
  <circle class="cls-4" cx="75.14" cy="77.1" r="3.17"/>
</svg>